<svg data-name="Layer 1" xmlns="http://www.w3.org/2000/svg" width="200" height="250" viewBox="0 0 200 250"><path style="fill:#cccccc;stroke:#000000;stroke-linecap:round" d="m 26.4901,200.61086 131.972,-3.938 4.251,4.202 8.712,-1.1 0.901,-7.354 9.664,-2.669 2.046,-9.053 4.243,1.397 5.338,-5.569 -2.888,-14.259 4.618,0.163 -11.233,-10 -30.812,-50.892 -0.139,-6.177 c -7.291,-4.78 -12.686,-10.826 -15.942,-18.296 l -0.286,-4.743 -4.65,-3.384 1.214,-7.527 13.813,18.46 c 1.236,1.424 -0.153,2.448 0.962,3.993 3.61,4.999 9.826,10.041 13.49,12.969 1.871,-0.629 4.065,-0.183 4.994,-3.958 l 3.603,-23.974 -16.197,-33 c -10.937,7.653 -21.873,10.712 -32.811,-0.68 l -13.366,1.024 c -3.054,1.313 -6.305,3.313 -8.068,0.107 l -21.565,12.601 -35.713,-7.956 c -5.366,-1.103 -11.091,-2.92 -15.52,-2.146 -4.543,2.772 -7.775,0.63 -11.006,-1.522 -1.838,3.193 -3.775,6.423 -2.013,8.308 l 1.444,13.004 c -3.161,5.095 -6.078,10.318 3.912,22.318 l 7.032,119.651 z" id="Aegypten"/></svg>